<svg width="215" height="150" viewBox="0 0 115 97" fill="none" xmlns="http://www.w3.org/2000/svg">
    <g clip-path="url(#clip0)">
        <path
            d="M54.0158 96.1493C79.099 96.1493 99.4329 95.1095 99.4329 93.8269C99.4329 92.5442 79.099 91.5044 54.0158 91.5044C28.9327 91.5044 8.59875 92.5442 8.59875 93.8269C8.59875 95.1095 28.9327 96.1493 54.0158 96.1493Z"
            fill="#F2F2F2"/>
        <path
            d="M80.5503 22.3146H80.0344V8.18048C80.0344 6.01089 79.1725 3.93015 77.6384 2.39601C76.1043 0.861873 74.0235 2.3954e-06 71.8539 0H41.9088C39.7392 -4.10636e-06 37.6584 0.861859 36.1243 2.39599C34.5902 3.93012 33.7283 6.01086 33.7283 8.18045V85.7216C33.7283 87.8912 34.5901 89.972 36.1243 91.5061C37.6584 93.0402 39.7391 93.9021 41.9087 93.9021H71.8539C74.0235 93.9021 76.1042 93.0402 77.6384 91.5061C79.1725 89.972 80.0344 87.8912 80.0344 85.7216V32.3756H80.5503L80.5503 22.3146Z"
            fill="#3F3D56"/>
        <path
            d="M78.2933 8.23754V85.6646C78.2933 87.2849 77.6496 88.8388 76.5039 89.9845C75.3581 91.1303 73.8042 91.7739 72.1839 91.774H42.0951C40.4748 91.7739 38.9209 91.1303 37.7751 89.9845C36.6294 88.8388 35.9857 87.2849 35.9857 85.6646V8.23754C35.9857 6.61725 36.6294 5.06332 37.7751 3.9176C38.9209 2.77188 40.4748 2.1282 42.0951 2.12817H45.7452C45.5659 2.56892 45.4976 3.04699 45.5463 3.52033C45.5951 3.99367 45.7594 4.44778 46.0249 4.8427C46.2903 5.23763 46.6488 5.56127 47.0686 5.78516C47.4885 6.00905 47.957 6.12633 48.4328 6.12668H65.5881C66.064 6.12633 66.5324 6.00905 66.9523 5.78515C67.3722 5.56126 67.7306 5.23762 67.9961 4.8427C68.2615 4.44777 68.4258 3.99367 68.4746 3.52033C68.5234 3.04699 68.4551 2.56892 68.2757 2.12817H72.1839C73.8042 2.1282 75.3581 2.77188 76.5039 3.9176C77.6496 5.06332 78.2933 6.61725 78.2933 8.23754Z"
            fill="white"/>
        <path
            d="M68.6001 41.6236C68.4001 41.7281 68.1966 41.827 67.9898 41.9204C67.8014 42.0055 67.61 42.0855 67.4156 42.1603C67.3446 42.1874 67.2724 42.2145 67.2002 42.2416C66.6289 42.4488 66.0421 42.6106 65.4454 42.7255C65.1499 42.7835 64.8506 42.8291 64.5474 42.8622C64.2971 42.8906 64.0442 42.9108 63.7887 42.9229C63.6068 42.9319 63.4248 42.9358 63.2416 42.9358C62.5161 42.9361 61.7921 42.8683 61.0792 42.7332C60.8933 42.6997 60.7115 42.6597 60.5295 42.6158C59.6495 42.4049 58.7976 42.0905 57.9916 41.6791C57.9193 41.6429 57.8471 41.6042 57.7748 41.5668C57.6677 41.5101 57.5633 41.4507 57.4587 41.3888C57.509 41.3191 57.5633 41.2507 57.6187 41.1836C58.2224 40.4354 58.9771 39.8228 59.8334 39.3858C60.6898 38.9488 61.6286 38.6971 62.5887 38.6472C63.5488 38.5973 64.5087 38.7502 65.4057 39.0961C66.3028 39.442 67.1169 39.973 67.7949 40.6546C68.0303 40.8908 68.2485 41.1435 68.4478 41.4107C68.5007 41.4804 68.551 41.5513 68.6001 41.6236Z"
            fill="#CEE2F4"/>
        <path
            d="M63.4991 35.9559C66.6281 35.9559 69.1646 33.4194 69.1646 30.2905C69.1646 27.1615 66.6281 24.625 63.4991 24.625C60.3701 24.625 57.8336 27.1615 57.8336 30.2905C57.8336 33.4194 60.3701 35.9559 63.4991 35.9559Z"
            fill="#2F2E41"/>
        <path
            d="M65.006 35.964C67.0495 34.8469 67.8004 32.2849 66.6834 30.2415C65.5664 28.1981 63.0043 27.4471 60.9609 28.5641C58.9175 29.6811 58.1665 32.2432 59.2835 34.2866C60.4006 36.33 62.9626 37.081 65.006 35.964Z"
            fill="#A0616A"/>
        <path
            d="M67.4142 29.6118C66.4506 30.2759 65.307 30.6294 64.1367 30.6247C64.5542 30.9141 65.0294 31.1096 65.5297 31.1977C63.9737 31.5315 62.3657 31.5405 60.8061 31.2243C60.4594 31.1687 60.1249 31.0538 59.8172 30.8847C59.6639 30.799 59.5303 30.6821 59.4252 30.5415C59.32 30.4008 59.2456 30.2396 59.2068 30.0684C59.1032 29.4763 59.5645 28.9384 60.044 28.5759C60.778 28.0294 61.6243 27.6528 62.5218 27.4735C63.4192 27.2941 64.3452 27.3165 65.2329 27.539C65.8126 27.6888 66.3932 27.942 66.7697 28.4075C67.1462 28.873 67.2577 29.5906 66.899 30.07L67.4142 29.6118Z"
            fill="#2F2E41"/>
        <path
            d="M63.2416 19.7112C60.7091 19.7108 58.2459 20.5385 56.2275 22.068C54.209 23.5975 52.7461 25.7451 52.0615 28.1833C51.3769 30.6215 51.5083 33.2167 52.4357 35.5733C53.363 37.9299 55.0354 39.9187 57.198 41.2365L57.2729 41.2804C57.3348 41.3178 57.3967 41.3539 57.4587 41.3888C57.5632 41.4507 57.6676 41.5101 57.7747 41.5668C57.847 41.6043 57.9193 41.643 57.9915 41.6791C58.7975 42.0905 59.6494 42.4049 60.5295 42.6158C60.7114 42.6597 60.8933 42.6997 61.0791 42.7332C61.792 42.8683 62.516 42.9361 63.2416 42.9358C63.4248 42.9358 63.6067 42.9319 63.7887 42.9229C64.0441 42.9113 64.297 42.8911 64.5473 42.8623C64.8505 42.8287 65.1499 42.7831 65.4453 42.7255C66.0421 42.6106 66.6288 42.4488 67.2001 42.2416C67.2724 42.2145 67.3446 42.1874 67.4156 42.1604C67.6104 42.0855 67.8017 42.0055 67.9897 41.9204C68.1962 41.8275 68.3996 41.7285 68.6 41.6236C70.6086 40.5717 72.2688 38.9595 73.3791 36.9826C73.3843 36.9722 73.3908 36.9619 73.3959 36.9516C73.9883 35.8886 74.4085 34.7385 74.641 33.544C74.9674 31.8625 74.918 30.1296 74.4962 28.4694C74.0745 26.8092 73.2909 25.2628 72.2015 23.9409C71.1122 22.619 69.744 21.5543 68.195 20.8231C66.646 20.0918 64.9545 19.7122 63.2416 19.7112H63.2416ZM73.1843 36.8006C73.174 36.8187 73.165 36.8368 73.1546 36.8535C72.0665 38.8013 70.4296 40.3861 68.4478 41.4107C68.2503 41.5139 68.0495 41.6107 67.8452 41.701C67.6762 41.7771 67.5033 41.8494 67.3291 41.9165C67.2555 41.9449 67.1808 41.9733 67.1059 41.9991C66.6124 42.1793 66.1066 42.3242 65.5924 42.4326C65.211 42.5138 64.8255 42.5745 64.4376 42.6145C64.1989 42.6403 63.9564 42.6584 63.7125 42.6674C63.5564 42.6739 63.399 42.6777 63.2416 42.6777C62.5394 42.6786 61.8387 42.6133 61.1488 42.4829C60.7291 42.4055 60.3142 42.3038 59.9062 42.1784C59.2848 41.9864 58.6809 41.7417 58.1012 41.4468C58.0341 41.412 57.967 41.3772 57.9012 41.341C57.807 41.2907 57.7115 41.2391 57.6186 41.1836C57.5489 41.1449 57.4793 41.1036 57.4109 41.0623C57.3709 41.0391 57.3309 41.0146 57.2909 40.9901C55.3948 39.8257 53.8823 38.1302 52.9411 36.114C51.9998 34.0978 51.6712 31.8496 51.996 29.6484C52.3208 27.4471 53.2847 25.3897 54.7682 23.7313C56.2517 22.0729 58.1894 20.8865 60.341 20.3194C62.4926 19.7522 64.7633 19.8292 66.8716 20.5409C68.9798 21.2525 70.8327 22.5675 72.2004 24.3226C73.5681 26.0777 74.3904 28.1957 74.5653 30.4139C74.7402 32.6321 74.26 34.8529 73.1843 36.8006H73.1843Z"
            fill="#3F3D56"/>
        <path
            d="M60.6301 24.7032C60.5692 24.0622 59.7839 23.6676 59.1698 23.8612C58.5557 24.0548 58.1525 24.6732 58.0307 25.3054C57.972 25.5717 57.9665 25.8469 58.0145 26.1153C58.0624 26.3837 58.1628 26.64 58.31 26.8695C58.6204 27.3162 59.1909 27.595 59.7229 27.4816C60.3302 27.3522 60.751 26.7591 60.8714 26.1499C60.9918 25.5407 60.8723 24.9127 60.7529 24.3033L60.6301 24.7032Z"
            fill="#2F2E41"/>
        <path
            d="M69.2726 25.619C69.2116 24.978 68.4263 24.5834 67.8122 24.777C67.1982 24.9706 66.795 25.5889 66.6731 26.2212C66.6145 26.4874 66.609 26.7627 66.6569 27.0311C66.7049 27.2995 66.8053 27.5558 66.9525 27.7853C67.2629 28.232 67.8333 28.5108 68.3653 28.3974C68.9727 28.2679 69.3934 27.6749 69.5138 27.0657C69.6342 26.4565 69.5147 25.8284 69.3953 25.219L69.2726 25.619Z"
            fill="#2F2E41"/>
        <path
            d="M43.1699 35.9645C43.0896 35.9644 43.0101 35.9476 42.9367 35.9151C42.8632 35.8825 42.7974 35.835 42.7433 35.7756L36.3408 28.791C36.2681 28.7119 36.1799 28.6487 36.0816 28.6055C35.9833 28.5622 35.8771 28.5399 35.7697 28.5397H1.93658C1.42315 28.5392 0.930903 28.3349 0.567848 27.9719C0.204793 27.6088 0.000576459 27.1166 0 26.6031V14.4022C0.000576118 13.8887 0.204793 13.3965 0.567848 13.0334C0.930903 12.6704 1.42315 12.4662 1.93658 12.4656H45.7699C46.2833 12.4662 46.7756 12.6704 47.1386 13.0334C47.5017 13.3965 47.7059 13.8887 47.7065 14.4022V26.6032C47.7059 27.1166 47.5017 27.6088 47.1386 27.9719C46.7756 28.3349 46.2833 28.5392 45.7699 28.5397H44.5272C44.3218 28.54 44.1249 28.6217 43.9796 28.7669C43.8344 28.9122 43.7527 29.1091 43.7524 29.3145V35.383C43.7529 35.5002 43.7178 35.6147 43.6516 35.7114C43.5855 35.8081 43.4915 35.8824 43.3821 35.9244C43.3145 35.9508 43.2425 35.9644 43.1699 35.9645Z"
            fill="white"/>
        <path
            d="M43.1699 35.9645C43.0896 35.9644 43.0101 35.9476 42.9367 35.9151C42.8632 35.8825 42.7974 35.835 42.7433 35.7756L36.3408 28.791C36.2681 28.7119 36.1799 28.6487 36.0816 28.6055C35.9833 28.5622 35.8771 28.5399 35.7697 28.5397H1.93658C1.42315 28.5392 0.930903 28.3349 0.567848 27.9719C0.204793 27.6088 0.000576459 27.1166 0 26.6031V14.4022C0.000576118 13.8887 0.204793 13.3965 0.567848 13.0334C0.930903 12.6704 1.42315 12.4662 1.93658 12.4656H45.7699C46.2833 12.4662 46.7756 12.6704 47.1386 13.0334C47.5017 13.3965 47.7059 13.8887 47.7065 14.4022V26.6032C47.7059 27.1166 47.5017 27.6088 47.1386 27.9719C46.7756 28.3349 46.2833 28.5392 45.7699 28.5397H44.5272C44.3218 28.54 44.1249 28.6217 43.9796 28.7669C43.8344 28.9122 43.7527 29.1091 43.7524 29.3145V35.383C43.7529 35.5002 43.7178 35.6147 43.6516 35.7114C43.5855 35.8081 43.4915 35.8824 43.3821 35.9244C43.3145 35.9508 43.2425 35.9644 43.1699 35.9645ZM1.93658 12.7236C1.49156 12.7241 1.06491 12.9011 0.750236 13.2158C0.435559 13.5305 0.258554 13.9571 0.258052 14.4022V26.6032C0.258555 27.0482 0.435561 27.4748 0.750238 27.7895C1.06491 28.1042 1.49156 28.2812 1.93658 28.2817H35.7697C35.9128 28.2818 36.0544 28.3117 36.1854 28.3693C36.3165 28.427 36.4341 28.5112 36.531 28.6166L42.9335 35.6012C42.9775 35.6491 43.0349 35.6827 43.0982 35.6974C43.1616 35.7122 43.2279 35.7075 43.2886 35.6839C43.3492 35.6603 43.4013 35.619 43.438 35.5653C43.4747 35.5116 43.4944 35.4481 43.4944 35.383V29.3145C43.4947 29.0407 43.6036 28.7782 43.7972 28.5845C43.9908 28.3909 44.2534 28.282 44.5272 28.2817H45.7699C46.2149 28.2812 46.6415 28.1042 46.9562 27.7895C47.2709 27.4748 47.4479 27.0482 47.4484 26.6032V14.4022C47.4479 13.9571 47.2709 13.5305 46.9562 13.2158C46.6416 12.9011 46.2149 12.7241 45.7699 12.7236H1.93658Z"
            fill="#3F3D56"/>
        <path
            d="M4.75025 17.8477C5.68615 17.8477 6.44484 17.089 6.44484 16.1531C6.44484 15.2172 5.68615 14.4585 4.75025 14.4585C3.81436 14.4585 3.05566 15.2172 3.05566 16.1531C3.05566 17.089 3.81436 17.8477 4.75025 17.8477Z"
            fill="#CEE2F4"/>
        <path
            d="M43.7929 25.53H3.91365C3.79487 25.5301 3.67723 25.5068 3.56746 25.4615C3.45768 25.4161 3.35792 25.3496 3.27388 25.2656C3.18984 25.1817 3.12318 25.082 3.07769 24.9723C3.0322 24.8626 3.00879 24.745 3.00879 24.6262C3.00879 24.5074 3.0322 24.3898 3.07769 24.2801C3.12318 24.1704 3.18984 24.0707 3.27388 23.9867C3.35792 23.9028 3.45768 23.8363 3.56746 23.7909C3.67723 23.7455 3.79487 23.7223 3.91365 23.7224H43.7929C44.0324 23.7227 44.262 23.818 44.4313 23.9875C44.6005 24.157 44.6956 24.3867 44.6956 24.6262C44.6956 24.8657 44.6005 25.0954 44.4313 25.2649C44.262 25.4343 44.0324 25.5297 43.7929 25.53Z"
            fill="#E6E6E6"/>
        <path
            d="M30.8011 21.6889H3.91365C3.79487 21.689 3.67723 21.6658 3.56746 21.6204C3.45768 21.5751 3.35792 21.5085 3.27388 21.4246C3.18984 21.3406 3.12318 21.241 3.07769 21.1312C3.0322 21.0215 3.00879 20.9039 3.00879 20.7851C3.00879 20.6664 3.0322 20.5487 3.07769 20.439C3.12318 20.3293 3.18984 20.2296 3.27388 20.1457C3.35792 20.0617 3.45768 19.9952 3.56746 19.9498C3.67723 19.9045 3.79487 19.8812 3.91365 19.8813H30.8011C31.0408 19.8813 31.2706 19.9766 31.4401 20.1461C31.6096 20.3156 31.7048 20.5454 31.7048 20.7851C31.7048 21.0248 31.6096 21.2547 31.4401 21.4242C31.2706 21.5937 31.0408 21.6889 30.8011 21.6889Z"
            fill="#E6E6E6"/>
        <path
            d="M71.6179 77.3416C71.5085 77.2996 71.4145 77.2253 71.3484 77.1286C71.2823 77.0319 71.2471 76.9174 71.2476 76.8002V70.7317C71.2474 70.5263 71.1657 70.3294 71.0204 70.1841C70.8752 70.0389 70.6783 69.9572 70.4728 69.9569H69.2302C68.7167 69.9564 68.2245 69.7522 67.8614 69.3891C67.4984 69.026 67.2942 68.5338 67.2936 68.0204V55.8194C67.2942 55.306 67.4984 54.8137 67.8614 54.4507C68.2245 54.0876 68.7167 53.8834 69.2302 53.8828H113.063C113.577 53.8834 114.069 54.0876 114.432 54.4507C114.795 54.8137 114.999 55.306 115 55.8194V68.0204C114.999 68.5338 114.795 69.026 114.432 69.3891C114.069 69.7522 113.577 69.9564 113.063 69.9569H79.2304C79.123 69.9571 79.0168 69.9795 78.9185 70.0227C78.8202 70.066 78.7319 70.1291 78.6593 70.2082L72.2567 77.1928C72.2027 77.2522 72.1368 77.2997 72.0634 77.3323C71.9899 77.3648 71.9105 77.3816 71.8301 77.3817C71.7575 77.3816 71.6855 77.368 71.6179 77.3416Z"
            fill="white"/>
        <path
            d="M71.6179 77.3416C71.5085 77.2996 71.4145 77.2253 71.3484 77.1286C71.2823 77.0319 71.2471 76.9174 71.2476 76.8002V70.7317C71.2474 70.5263 71.1657 70.3294 71.0204 70.1841C70.8752 70.0389 70.6783 69.9572 70.4728 69.9569H69.2302C68.7167 69.9564 68.2245 69.7522 67.8614 69.3891C67.4984 69.026 67.2942 68.5338 67.2936 68.0204V55.8194C67.2942 55.306 67.4984 54.8137 67.8614 54.4507C68.2245 54.0876 68.7167 53.8834 69.2302 53.8828H113.063C113.577 53.8834 114.069 54.0876 114.432 54.4507C114.795 54.8137 114.999 55.306 115 55.8194V68.0204C114.999 68.5338 114.795 69.026 114.432 69.3891C114.069 69.7522 113.577 69.9564 113.063 69.9569H79.2304C79.123 69.9571 79.0168 69.9795 78.9185 70.0227C78.8202 70.066 78.7319 70.1291 78.6593 70.2082L72.2567 77.1928C72.2027 77.2522 72.1368 77.2997 72.0634 77.3323C71.9899 77.3648 71.9105 77.3816 71.8301 77.3817C71.7575 77.3816 71.6855 77.368 71.6179 77.3416ZM69.2302 54.1409C68.7851 54.1414 68.3585 54.3184 68.0438 54.633C67.7291 54.9477 67.5521 55.3744 67.5516 55.8194V68.0204C67.5521 68.4654 67.7291 68.892 68.0438 69.2067C68.3585 69.5214 68.7851 69.6984 69.2302 69.6989H70.4729C70.7467 69.6992 71.0092 69.8081 71.2028 70.0018C71.3964 70.1954 71.5054 70.4579 71.5057 70.7317V76.8002C71.5057 76.8653 71.5253 76.9288 71.562 76.9825C71.5988 77.0362 71.6509 77.0775 71.7115 77.1011C71.7721 77.1247 71.8385 77.1294 71.9018 77.1146C71.9652 77.0999 72.0226 77.0663 72.0666 77.0184L78.4691 70.0338C78.5659 69.9284 78.6836 69.8442 78.8146 69.7865C78.9457 69.7289 79.0872 69.6991 79.2304 69.6989H113.063C113.508 69.6984 113.935 69.5214 114.25 69.2067C114.564 68.892 114.741 68.4654 114.742 68.0204V55.8194C114.741 55.3744 114.564 54.9477 114.25 54.633C113.935 54.3184 113.508 54.1414 113.063 54.1409H69.2302Z"
            fill="#3F3D56"/>
        <path
            d="M57.9555 81.1197C56.158 82.2708 54.0754 82.8984 51.9412 82.9324C49.8069 82.9663 47.7054 82.4053 45.8722 81.312C46.1947 80.7117 46.6033 80.1618 47.0851 79.6798C47.8284 78.9329 48.7331 78.3664 49.7295 78.0237C50.726 77.681 51.7878 77.5713 52.8333 77.703C53.8787 77.8347 54.8801 78.2043 55.7605 78.7834C56.6408 79.3625 57.3767 80.1357 57.9116 81.0436C57.9258 81.0681 57.9413 81.0939 57.9555 81.1197Z"
            fill="#CEE2F4"/>
        <path
            d="M51.4094 74.9498C54.5592 74.9498 57.1126 72.3964 57.1126 69.2466C57.1126 66.0968 54.5592 63.5435 51.4094 63.5435C48.2597 63.5435 45.7063 66.0968 45.7063 69.2466C45.7063 72.3964 48.2597 74.9498 51.4094 74.9498Z"
            fill="#2F2E41"/>
        <path
            d="M55.653 73.2694C56.7775 71.2124 56.0215 68.6333 53.9645 67.5088C51.9075 66.3844 49.3284 67.1403 48.204 69.1973C47.0795 71.2543 47.8355 73.8334 49.8925 74.9579C51.9495 76.0823 54.5286 75.3264 55.653 73.2694Z"
            fill="#FFB8B8"/>
        <path
            d="M47.4683 68.5633C48.4382 69.2318 49.5895 69.5876 50.7676 69.5829C50.3473 69.8743 49.869 70.0711 49.3653 70.1598C50.9316 70.4958 52.5504 70.5048 54.1204 70.1865C54.4694 70.1305 54.8061 70.0149 55.1158 69.8446C55.2701 69.7584 55.4046 69.6407 55.5104 69.4991C55.6163 69.3576 55.6912 69.1953 55.7302 69.0229C55.8345 68.4269 55.3701 67.8855 54.8875 67.5206C54.1486 66.9704 53.2967 66.5913 52.3933 66.4108C51.4899 66.2303 50.5577 66.2528 49.6641 66.4768C49.0806 66.6276 48.496 66.8824 48.1171 67.351C47.7381 67.8196 47.6258 68.542 47.9869 69.0245L47.4683 68.5633Z"
            fill="#2F2E41"/>
        <path
            d="M51.7583 83.0629C48.9652 83.062 46.2661 82.0541 44.156 80.2241C42.0459 78.3941 40.6664 75.8647 40.2705 73.0998C39.8745 70.3349 40.4887 67.52 42.0004 65.1713C43.5121 62.8227 45.8199 61.0978 48.5004 60.313C51.181 59.5283 54.0547 59.7364 56.5943 60.8991C59.1339 62.0617 61.1691 64.1011 62.3267 66.643C63.4843 69.1849 63.6866 72.059 62.8965 74.738C62.1064 77.417 60.3769 79.7213 58.0252 81.2283C56.1551 82.4275 53.9799 83.0642 51.7583 83.0629ZM51.7583 60.0963C49.5123 60.0961 47.3168 60.7619 45.4492 62.0096C43.5817 63.2572 42.1261 65.0307 41.2665 67.1056C40.4069 69.1806 40.1819 71.4639 40.6201 73.6667C41.0582 75.8695 42.1397 77.8929 43.7278 79.4811C45.3159 81.0692 47.3394 82.1507 49.5422 82.5888C51.745 83.027 54.0283 82.802 56.1032 81.9424C58.1782 81.0828 59.9516 79.6272 61.1993 77.7597C62.4469 75.8921 63.1128 73.6965 63.1126 71.4506C63.1092 68.4403 61.9118 65.5543 59.7832 63.4257C57.6546 61.2971 54.7686 60.0997 51.7583 60.0963Z"
            fill="#3F3D56"/>
        <path
            d="M72.7468 59.136C73.6827 59.136 74.4414 58.3773 74.4414 57.4414C74.4414 56.5055 73.6827 55.7468 72.7468 55.7468C71.8109 55.7468 71.0522 56.5055 71.0522 57.4414C71.0522 58.3773 71.8109 59.136 72.7468 59.136Z"
            fill="#CEE2F4"/>
        <path
            d="M111.789 66.8181H71.9102C71.7915 66.8182 71.6738 66.795 71.564 66.7496C71.4543 66.7042 71.3545 66.6377 71.2705 66.5538C71.1864 66.4698 71.1198 66.3701 71.0743 66.2604C71.0288 66.1507 71.0054 66.0331 71.0054 65.9143C71.0054 65.7955 71.0288 65.6779 71.0743 65.5682C71.1198 65.4585 71.1864 65.3588 71.2705 65.2748C71.3545 65.1909 71.4543 65.1243 71.564 65.079C71.6738 65.0336 71.7915 65.0104 71.9102 65.0105H111.789C112.029 65.0105 112.259 65.1057 112.429 65.2752C112.598 65.4447 112.693 65.6746 112.693 65.9143C112.693 66.154 112.598 66.3839 112.429 66.5534C112.259 66.7229 112.029 66.8181 111.789 66.8181Z"
            fill="#E6E6E6"/>
        <path
            d="M98.7977 62.977H71.9102C71.7915 62.9771 71.6738 62.9539 71.564 62.9085C71.4543 62.8631 71.3545 62.7966 71.2705 62.7127C71.1864 62.6287 71.1198 62.529 71.0743 62.4193C71.0288 62.3096 71.0054 62.192 71.0054 62.0732C71.0054 61.9544 71.0288 61.8368 71.0743 61.7271C71.1198 61.6174 71.1864 61.5177 71.2705 61.4338C71.3545 61.3498 71.4543 61.2833 71.564 61.2379C71.6738 61.1926 71.7915 61.1693 71.9102 61.1694H98.7977C99.0372 61.1697 99.2668 61.2651 99.436 61.4345C99.6053 61.604 99.7004 61.8337 99.7004 62.0732C99.7004 62.3127 99.6053 62.5424 99.436 62.7119C99.2668 62.8814 99.0372 62.9767 98.7977 62.977Z"
            fill="#E6E6E6"/>
        <path
            d="M71.5633 78.4967C73.3094 78.4967 74.7249 78.3396 74.7249 78.1458C74.7249 77.952 73.3094 77.7949 71.5633 77.7949C69.8171 77.7949 68.4016 77.952 68.4016 78.1458C68.4016 78.3396 69.8171 78.4967 71.5633 78.4967Z"
            fill="#F2F2F2"/>
        <path
            d="M43.3067 37.2086C45.0528 37.2086 46.4683 37.0515 46.4683 36.8577C46.4683 36.6639 45.0528 36.5068 43.3067 36.5068C41.5605 36.5068 40.145 36.6639 40.145 36.8577C40.145 37.0515 41.5605 37.2086 43.3067 37.2086Z"
            fill="#F2F2F2"/>
    </g>
    <defs>
        <clipPath id="clip0">
            <rect width="115" height="96.1493" fill="white"/>
        </clipPath>
    </defs>
</svg>
