<svg width="200" height="201" viewBox="0 0 200 201" fill="none" xmlns="http://www.w3.org/2000/svg">
    <rect width="200" height="200"/>
    <path fill-rule="evenodd" clip-rule="evenodd"
          d="M165.482 162.937C160.176 155.025 152.353 149.274 143.368 146.68L122.499 140.654V125.193C131.321 118.362 137.115 107.613 137.471 95.4531C138.704 96.0133 140.065 96.3308 141.5 96.3308C147.022 96.3308 151.5 91.716 151.5 86.0231C151.5 80.3301 147.022 75.7154 141.5 75.7154C140.076 75.7154 138.726 76.0262 137.5 76.5787V73.6538C137.5 52.3056 120.711 35 100 35H99.9995C79.289 35 62.5 52.3056 62.5 73.6538V76.5787C61.274 76.0262 59.923 75.7154 58.5 75.7154C52.977 75.7154 48.5 80.3301 48.5 86.0231C48.5 91.716 52.977 96.3308 58.5 96.3308C59.9345 96.3308 61.2955 96.0138 62.529 95.4531C62.8845 107.613 68.678 118.362 77.4995 125.193V140.654L56.6315 146.68C47.6465 149.274 39.824 155.025 34.518 162.937L20 184.585V199.923H180V184.585L165.482 162.937Z"
          fill="#B5683C"/>
    <path fill-rule="evenodd" clip-rule="evenodd"
          d="M99.9996 132.923C95.3756 132.923 90.9496 132.055 86.8596 130.477C92.6766 134.308 99.5846 136.531 107 136.531C112.53 136.531 117.774 135.287 122.5 133.072V125.193C116.232 130.045 108.442 132.923 99.9996 132.923Z"
          fill="#A3420B"/>
    <path d="M63.8044 87.5271C63.9319 87.0483 64.0004 86.5438 64.0004 86.0232C64.0004 82.8923 61.5379 80.354 58.5004 80.354C57.7409 80.354 57.0174 80.5127 56.3594 80.7993" stroke="black"
          stroke-width="2" stroke-linecap="round" stroke-linejoin="round"/>
    <path d="M136.196 87.5271C136.068 87.0483 136 86.5438 136 86.0232C136 82.8923 138.463 80.354 141.5 80.354C142.259 80.354 142.983 80.5127 143.641 80.7993" stroke="black" stroke-width="2"
          stroke-linecap="round" stroke-linejoin="round"/>
    <rect width="55" height="22" transform="translate(73 70)" fill="#B5683C"/>
    <path fill-rule="evenodd" clip-rule="evenodd"
          d="M123.05 81.0001C123.05 83.43 121.08 85.4001 118.65 85.4001C116.22 85.4001 114.25 83.43 114.25 81.0001C114.25 78.5702 116.22 76.6001 118.65 76.6001C121.08 76.6001 123.05 78.5702 123.05 81.0001Z"
          fill="black"/>
    <path fill-rule="evenodd" clip-rule="evenodd"
          d="M86.75 81.0001C86.75 83.43 84.7799 85.4001 82.35 85.4001C79.9201 85.4001 77.95 83.43 77.95 81.0001C77.95 78.5702 79.9201 76.6001 82.35 76.6001C84.7799 76.6001 86.75 78.5702 86.75 81.0001Z"
          fill="black"/>
    <rect width="33" height="24.75" transform="translate(84 104)" fill="#B5683C"/>
    <path fill-rule="evenodd" clip-rule="evenodd" d="M110.812 107.918C110.812 113.614 106.195 118.231 100.5 118.231C94.8046 118.231 90.1875 113.614 90.1875 107.918H110.812Z" fill="#AE1328"/>
    <path fill-rule="evenodd" clip-rule="evenodd"
          d="M106.271 116.466C104.783 115.008 102.748 114.106 100.5 114.106C98.2523 114.106 96.2166 115.008 94.7288 116.466C96.3759 117.58 98.3616 118.231 100.5 118.231C102.638 118.231 104.625 117.58 106.271 116.466Z"
          fill="#FB344F"/>
    <path fill-rule="evenodd" clip-rule="evenodd" d="M106.688 111.218H94.3125C93.1732 111.218 92.25 110.295 92.25 109.156V107.918H108.75V109.156C108.75 110.295 107.827 111.218 106.688 111.218Z"
          fill="white"/>
    <rect width="15" height="22.5" transform="translate(94 81)" fill="#B5683C"/>
    <path d="M100.316 85.5L103.977 94.9125C104.742 96.8794 103.291 99 101.181 99H98.8164" stroke="black" stroke-width="2" stroke-linecap="round" stroke-linejoin="round"/>
    <path fill-rule="evenodd" clip-rule="evenodd"
          d="M185 184.565L169.575 162.25C163.937 154.095 155.626 148.167 146.078 145.493L126.562 140.025V128.656C126.562 127.189 125.374 126 123.906 126V128.657C117.247 133.659 108.97 136.625 100 136.625C91.0298 136.625 82.753 133.659 76.0938 128.657V126C74.6264 126 73.4375 127.189 73.4375 128.656V140.025L53.9215 145.493C44.3744 148.167 36.063 154.095 30.4254 162.25L15 184.565V200.375H185V184.565Z"
          fill="black"/>
    <path d="M114.056 147.623C109.684 149.271 104.947 150.173 99.9999 150.173C89.7946 150.173 80.4849 146.335 73.4358 140.025" stroke="#8A8A8A" stroke-width="2" stroke-linecap="round"
          stroke-linejoin="round"/>
    <path fill-rule="evenodd" clip-rule="evenodd"
          d="M137.778 72.4786V70.4721C137.778 63.2254 135.733 56.4575 132.196 50.7073C128.917 45.3782 124.351 40.9318 118.934 37.7868C113.366 34.5539 106.901 32.6943 99.9999 32.6943C93.0979 32.6943 86.6342 34.5539 81.0662 37.7868C75.6489 40.9318 71.0825 45.3782 67.8038 50.7073C64.2664 56.4575 62.2222 63.2254 62.2222 70.4721V72.4786C64.1923 72.7761 65.9617 73.6757 67.3354 74.9922C71.6864 70.6251 75.1903 65.4146 77.5741 59.6219C84.2457 63.2292 91.8834 65.2777 99.9999 65.2777C108.117 65.2777 115.754 63.2292 122.426 59.6219C124.809 65.4146 128.314 70.6251 132.665 74.9922C134.038 73.6757 135.808 72.7761 137.778 72.4786Z"
          fill="black"/>
</svg>
