<svg xmlns="http://www.w3.org/2000/svg">
    <defs>
        <symbol id="camera" xmlns="http://www.w3.org/2000/svg" viewBox="0 0 512 512">
            <path d="M402,166c-5.52,0-10,4.48-10,10s4.48,10,10,10c5.52,0,10-4.48,10-10S407.52,166,402,166z"/>
            <path d="M482,126H372.18l-31.706-63.413C335.357,52.356,325.075,46,313.64,46H198.36c-11.437,0-21.719,6.356-26.834,16.588
			L139.82,126H120v-10c0-16.542-13.458-30-30-30H70c-16.542,0-30,13.458-30,30v10H30c-16.542,0-30,13.458-30,30
			c0,27.175,0,269.429,0,280c0,16.542,13.458,30,30,30h452c16.542,0,30-13.458,30-30c0-27.175,0-269.429,0-280
			C512,139.458,498.542,126,482,126z M189.415,71.532C191.121,68.12,194.548,66,198.36,66h115.28c3.812,0,7.24,2.12,8.946,5.532
			L349.82,126H162.18L189.415,71.532z M60,116c0-5.514,4.486-10,10-10h20c5.514,0,10,4.486,10,10v10H60V116z M20,225.9h126.451
			C133.161,246.661,126,270.992,126,296c0,25.01,7.162,49.243,20.45,70H20V225.9z M256,186c60.133,0,110,48.719,110,110
			c0,61.212-49.797,110-110,110c-60.257,0-110-48.842-110-110C146,234.795,195.79,186,256,186z M492,436c0,5.514-4.486,10-10,10H30
			c-5.514,0-10-4.486-10-10v-50h142.226c24.435,25.472,58.349,40,93.774,40c35.431,0,69.348-14.532,93.775-40H492V436z M492,366
			H365.549C378.839,345.239,386,321.009,386,296c0-25.009-7.161-49.239-20.451-70H492V366z M492,206H349.774
			c-24.434-25.472-58.348-40-93.774-40c-35.43,0-69.347,14.532-93.775,40H20v-50c0-5.514,4.486-10,10-10c9.081,0,437.942,0,452,0
			c5.514,0,10,4.486,10,10V206z"/>
            <path d="M286,86h-60c-5.523,0-10,4.477-10,10s4.477,10,10,10h60c5.522,0,10-4.477,10-10S291.522,86,286,86z"/>
            <path d="M256,206c-49.626,0-90,40.374-90,90c0,49.626,40.374,90,90,90c49.626,0,90-40.374,90-90C346,246.374,305.626,206,256,206z
			 M256,366c-38.598,0-70-31.402-70-70c0-38.598,31.402-70,70-70s70,31.402,70,70C326,334.598,294.598,366,256,366z"/>
            <path d="M256,246c-27.57,0-50,22.43-50,50c0,5.523,4.477,10,10,10s10-4.477,10-10c0-16.542,13.458-30,30-30
			c5.522,0,10-4.477,10-10S261.522,246,256,246z"/>
            <path
                d="M462,166h-20c-5.522,0-10,4.477-10,10s4.478,10,10,10h20c5.522,0,10-4.477,10-10S467.522,166,462,166z"/>
        </symbol>
        <symbol id="chevron" xmlns="http://www.w3.org/2000/svg" viewBox="0 0 32 32">
            <path
                d="M9.797 8.5c0 0.125-0.063 0.266-0.156 0.359l-6.141 6.141 6.141 6.141c0.094 0.094 0.156 0.234 0.156 0.359s-0.063 0.266-0.156 0.359l-0.781 0.781c-0.094 0.094-0.234 0.156-0.359 0.156s-0.266-0.063-0.359-0.156l-7.281-7.281c-0.094-0.094-0.156-0.234-0.156-0.359s0.063-0.266 0.156-0.359l7.281-7.281c0.094-0.094 0.234-0.156 0.359-0.156s0.266 0.063 0.359 0.156l0.781 0.781c0.094 0.094 0.156 0.219 0.156 0.359z"/>
        </symbol>
        <symbol id="exchange" xmlns="http://www.w3.org/2000/svg" viewBox="0 0 28 28">
            <path
                d="M28 18.5v3c0 0.266-0.234 0.5-0.5 0.5h-21.5v3c0 0.266-0.219 0.5-0.5 0.5-0.141 0-0.266-0.063-0.375-0.156l-4.984-5c-0.094-0.094-0.141-0.219-0.141-0.344 0-0.141 0.047-0.266 0.141-0.359l5-5c0.094-0.094 0.234-0.141 0.359-0.141 0.266 0 0.5 0.219 0.5 0.5v3h21.5c0.266 0 0.5 0.219 0.5 0.5zM28 10c0 0.125-0.047 0.266-0.141 0.359l-5 5c-0.094 0.094-0.234 0.141-0.359 0.141-0.266 0-0.5-0.234-0.5-0.5v-3h-21.5c-0.266 0-0.5-0.234-0.5-0.5v-3c0-0.266 0.234-0.5 0.5-0.5h21.5v-3c0-0.281 0.219-0.5 0.5-0.5 0.141 0 0.266 0.063 0.375 0.156l4.984 4.984c0.094 0.094 0.141 0.234 0.141 0.359z"/>
        </symbol>
        <symbol id="images" xmlns="http://www.w3.org/2000/svg" viewBox="0 0 477.867 477.867">
            <path
                d="M426.667,68.267H51.2c-28.277,0-51.2,22.923-51.2,51.2V358.4c0,28.277,22.923,51.2,51.2,51.2h375.467 c28.277,0,51.2-22.923,51.2-51.2V119.467C477.867,91.19,454.944,68.267,426.667,68.267z M443.733,358.4 c0,9.426-7.641,17.067-17.067,17.067H51.2c-9.426,0-17.067-7.641-17.067-17.067v-10.001l68.267-68.267l56.201,56.201 c6.664,6.663,17.468,6.663,24.132,0l141.534-141.534l119.467,119.467V358.4z M443.733,266.001L336.333,158.601 c-6.664-6.663-17.468-6.663-24.132,0L170.667,300.134l-56.201-56.201c-6.664-6.663-17.468-6.663-24.132,0l-56.201,56.201V119.467 c0-9.426,7.641-17.067,17.067-17.067h375.467c9.426,0,17.067,7.641,17.067,17.067V266.001z"/>
            <path
                d="M153.6,136.533c-28.277,0-51.2,22.923-51.2,51.2c0,28.277,22.923,51.2,51.2,51.2s51.2-22.923,51.2-51.2 C204.8,159.456,181.877,136.533,153.6,136.533z M153.6,204.8c-9.426,0-17.067-7.641-17.067-17.067 c0-9.426,7.641-17.067,17.067-17.067s17.067,7.641,17.067,17.067C170.667,197.159,163.026,204.8,153.6,204.8z"/>
        </symbol>
        <symbol id="settings" xmlns="http://www.w3.org/2000/svg" viewBox="0 0 32 32">
            <path
                d="M16,21 C13.243,21 11,18.757 11,16 C11,13.243 13.243,11 16,11 C18.757,11 21,13.243 21,16 C21,18.757 18.757,21 16,21 M27.235,14.471 L24.796,14.102 C24.564,13.025 24.138,12.022 23.559,11.126 L25.026,9.137 C25.324,8.838 25.324,8.354 25.026,8.055 L23.945,6.974 C23.646,6.675 23.162,6.675 22.864,6.974 L20.874,8.441 C19.979,7.862 18.975,7.436 17.898,7.204 L17.529,4.765 C17.529,4.342 17.187,4 16.765,4 L15.235,4 C14.813,4 14.471,4.342 14.471,4.765 L14.102,7.204 C13.025,7.436 12.021,7.862 11.126,8.441 L9.137,6.974 C8.838,6.675 8.354,6.675 8.055,6.974 L6.974,8.055 C6.676,8.354 6.676,8.838 6.974,9.137 L8.441,11.126 C7.862,12.022 7.436,13.025 7.204,14.102 L4.765,14.471 C4.342,14.471 4,14.813 4,15.235 L4,16.765 C4,17.187 4.342,17.529 4.765,17.529 L7.204,17.898 C7.436,18.975 7.862,19.979 8.441,20.874 L6.974,22.863 C6.676,23.162 6.676,23.646 6.974,23.945 L8.055,25.026 C8.354,25.324 8.838,25.324 9.137,25.026 L11.126,23.559 C12.021,24.138 13.025,24.564 14.104,24.796 L14.471,27.235 C14.471,27.658 14.813,28 15.235,28 L16.765,28 C17.187,28 17.529,27.658 17.529,27.235 L17.898,24.796 C18.975,24.564 19.979,24.138 20.874,23.559 L22.864,25.026 C23.162,25.324 23.646,25.324 23.945,25.026 L25.026,23.945 C25.324,23.646 25.324,23.162 25.026,22.863 L23.559,20.874 C24.138,19.979 24.564,18.975 24.796,17.898 L27.235,17.529 C27.658,17.529 28,17.187 28,16.765 L28,15.235 C28,14.813 27.658,14.471 27.235,14.471"/>
        </symbol>
        <symbol id="camera-switch"  xml:space="preserve" enable-background="new 0 0 32px 32px" xmlns="http://www.w3.org/2000/svg" viewBox="0 0 1000 1000">
            <g><g transform="translate(0.000000,380.000000) scale(0.100000,-0.100000)">
        <path d="M3257.7,2389.6c-99.6-51.7-227.8-197.2-390.6-444.2c-225.9-340.8-55.5-300.6-1294.3-306.3l-1062.6-5.7l-103.4-57.4c-59.4-32.5-135.9-97.6-178.1-149.3c-139.8-178.1-132.1,19.1-126.4-3049.9l5.7-2755.1l40.2-88.1c88.1-189.6,247-308.3,461.4-342.7c149.3-24.9,8630.9-24.9,8780.3,0c214.4,34.5,373.3,153.2,461.4,342.7l40.2,88.1l5.7,2755.1c5.7,3069.1,13.4,2871.9-126.3,3049.9c-42.1,51.7-118.7,116.8-178,149.3l-103.4,57.4l-1062.6,5.7c-1238.7,5.8-1068.3-34.5-1294.3,306.3c-166.6,250.8-291,394.4-394.4,446.1c-68.9,34.5-135.9,36.4-1742.3,36.4C3403.2,2426,3320.9,2424.1,3257.7,2389.6z M6621.7,1983.7c30.6-34.5,128.3-168.5,214.4-296.8c162.7-243.1,268-354.2,377.2-400.1c51.7-21.1,254.6-26.8,1102.8-26.8c999.4,0,1041.5-1.9,1100.9-38.3c34.5-21.1,68.9-61.3,76.6-90c9.6-28.7,15.3-1259.8,15.3-2734c0-2552.1-1.9-2684.3-34.5-2734c-19.1-30.6-55.5-61.3-82.3-70.8c-65.1-24.9-8719-24.9-8784.1,0c-26.8,9.6-63.2,40.2-82.3,70.8c-32.5,49.8-34.5,181.9-34.5,2734c0,1474.2,5.7,2705.3,15.3,2734c7.7,28.7,42.1,68.9,76.6,90c59.4,36.4,101.5,38.3,1100.9,38.3c848.2,0,1051.1,5.7,1102.8,26.8c109.1,45.9,214.4,157,377.2,400.1c86.2,128.3,183.8,262.3,214.4,296.8l59.4,61.3H5000h1562.3L6621.7,1983.7z"/>
        <path d="M4779.8,461.6c-254.6-30.6-538-126.4-758.2-256.6C3870.4,117,3832.1,71,3832.1-24.7c0-91.9,59.4-164.7,145.5-181.9c55.5-9.6,99.5,3.8,281.4,93.8c292.9,145.5,381,168.5,673.9,180c210.6,7.7,275.7,3.8,421.2-30.6c492.1-118.7,896-459.5,1089.4-917.1c47.9-113,88.1-262.3,116.8-434.6l11.5-76.6l-149.3,145.5c-178.1,174.2-227.8,208.7-296.8,208.7c-124.4,0-225.9-113-199.1-222.1c9.6-36.4,151.3-193.4,428.9-472.9L6771-2148l388.7,386.7c214.4,214.4,402.1,411.6,417.4,440.4c42.1,82.3,32.5,157-28.7,224c-45.9,47.9-70.8,59.4-135.9,59.4c-78.5,0-91.9-9.6-268-181.9l-185.7-183.8l-11.5,124.5c-46,482.5-325.5,997.5-716.1,1313.4C5830.9,358.2,5270,522.9,4779.8,461.6z"/>
        <path d="M2811.6-1052.8c-365.7-367.6-415.5-425-415.5-478.6c0-88.1,36.4-151.3,105.3-185.7c34.5-15.3,72.8-28.7,86.2-28.7c53.6,0,155.1,72.8,298.7,214.4l155.1,153.2l11.5-227.8c17.2-323.6,90-570.5,250.8-853.9c275.7-482.5,752.4-830.9,1296.2-943.9c218.3-47.9,585.9-47.9,800.3-1.9c225.9,47.9,465.2,149.3,664.3,279.5c229.8,151.2,298.7,225.9,302.5,327.4c1.9,68.9-7.7,88.1-63.2,137.9c-91.9,82.3-174.2,68.9-342.7-61.3c-622.2-480.6-1510.6-425-2067.8,130.2c-281.4,279.6-461.4,708.4-463.3,1093.3v124.4l178.1-174.2c101.5-99.6,201-181.9,231.7-189.5c122.5-30.6,264.2,111,233.6,233.6c-9.6,36.4-153.2,195.3-419.3,463.3c-222.1,222.1-409.7,405.9-415.5,405.9C3232.8-635.4,3041.4-823.1,2811.6-1052.8z"/>
        </g></g>
         </symbol>
    </defs>
</svg>
