<?xml version="1.0" standalone="no"?>
<!DOCTYPE svg PUBLIC "-//W3C//DTD SVG 20010904//EN"
    "http://www.w3.org/TR/2001/REC-SVG-20010904/DTD/svg10.dtd">
<svg version="1.0" xmlns="http://www.w3.org/2000/svg"
     width="658.000000pt" height="658.000000pt" viewBox="0 0 658.000000 658.000000"
     preserveAspectRatio="xMidYMid meet">
    <metadata>
        Created by potrace 1.11, written by Peter Selinger 2001-2013
    </metadata>
    <g transform="translate(0.000000,658.000000) scale(0.100000,-0.100000)"
       fill="#000000" stroke="none">
        <path d="M1295 6381 c-27 -12 -49 -39 -65 -81 -8 -19 -29 -54 -46 -77 -41 -54
-58 -133 -51 -234 11 -145 30 -192 177 -452 118 -208 135 -243 121 -252 -26
-16 -199 -11 -302 9 -63 12 -110 16 -135 11 -50 -9 -100 -61 -141 -146 -17
-36 -45 -77 -62 -91 -29 -25 -104 -48 -155 -48 -35 0 -122 -28 -135 -44 -7 -8
-15 -40 -18 -70 -3 -31 -12 -61 -19 -67 -7 -5 -53 -19 -103 -29 -109 -22 -198
-67 -251 -128 -43 -49 -55 -88 -48 -161 6 -61 35 -102 101 -145 29 -18 86 -67
128 -107 l76 -75 -78 -82 c-58 -63 -79 -93 -88 -127 -20 -81 -10 -125 42 -173
l25 -24 -19 -44 c-41 -91 -34 -207 18 -312 30 -60 138 -174 209 -221 24 -16
64 -51 88 -78 30 -33 58 -53 85 -62 32 -9 49 -23 76 -63 19 -28 32 -55 29 -60
-3 -4 -19 -8 -36 -8 -46 0 -111 -71 -128 -139 -44 -186 75 -301 301 -290 l74
4 1 -225 c1 -303 16 -355 171 -588 59 -90 204 -249 248 -272 24 -13 28 -13 40
4 7 10 33 70 56 134 79 219 188 441 260 532 19 24 20 25 34 6 19 -24 19 -36 2
-36 -19 0 -45 -31 -47 -55 -5 -49 2 -70 38 -105 80 -80 161 -76 327 15 l99 55
93 -40 c51 -22 148 -56 215 -76 68 -20 126 -40 131 -43 4 -4 -19 -32 -50 -61
-72 -67 -101 -105 -113 -148 -12 -46 1 -77 57 -125 l45 -41 -28 -24 c-16 -13
-61 -55 -101 -94 -104 -100 -108 -145 -16 -221 l42 -34 -41 -12 c-94 -29 -168
-144 -168 -262 0 -113 92 -238 202 -275 92 -30 223 -13 292 39 57 43 75 50 91
33 10 -10 27 -13 53 -10 261 35 286 55 286 238 0 93 -2 100 -25 118 -42 34
-341 209 -417 245 -85 40 -85 42 8 123 58 50 61 52 92 40 18 -7 89 -14 158
-17 113 -4 128 -2 157 16 58 36 125 145 168 271 l22 65 109 -5 c254 -12 756
-2 934 17 96 11 176 19 177 18 1 0 -10 -30 -24 -65 -30 -72 -35 -148 -12 -176
8 -10 43 -31 79 -47 36 -16 66 -30 68 -31 1 -2 -21 -68 -49 -147 -37 -104 -52
-160 -53 -203 -1 -57 0 -59 45 -100 35 -31 86 -58 220 -113 315 -129 297 -119
304 -176 4 -27 3 -53 -1 -57 -5 -5 -49 -2 -97 6 -79 14 -94 14 -149 0 -159
-40 -217 -219 -106 -323 38 -36 177 -66 263 -58 138 14 263 58 329 116 43 37
57 60 62 103 9 65 14 75 30 69 21 -8 97 67 142 142 64 108 50 167 -72 294 -92
95 -138 124 -195 124 -40 0 -48 -4 -93 -51 -27 -29 -55 -52 -61 -52 -33 0
-332 108 -335 121 -1 8 12 67 30 133 l33 118 110 3 c141 4 197 18 232 59 51
61 106 222 134 391 l12 74 56 16 c31 9 74 29 96 44 60 42 290 159 343 174 39
10 48 17 52 40 9 50 335 262 459 298 92 27 86 62 -91 539 l-20 55 57 80 c112
156 159 284 160 432 0 83 -2 94 -24 117 -13 14 -33 26 -45 28 -18 3 -20 9 -18
39 5 56 -30 90 -96 97 -42 4 -57 1 -73 -14 -14 -13 -33 -17 -67 -15 -62 3 -80
-16 -92 -100 -15 -92 -31 -160 -39 -157 -3 2 -18 10 -33 17 -32 16 -33 27 -18
147 30 227 57 547 50 580 -11 50 -42 78 -83 78 -72 0 -187 -83 -397 -290
l-135 -132 -70 18 c-45 12 -106 19 -170 19 l-100 1 -70 -76 c-38 -42 -93 -109
-121 -150 -28 -40 -54 -71 -58 -67 -3 3 -6 47 -6 96 0 129 -12 160 -91 237
-36 36 -74 77 -83 91 -30 48 -37 133 -24 296 14 183 14 183 -95 301 -81 86
-107 126 -107 167 0 14 9 67 21 118 15 67 20 115 17 177 -6 137 -56 213 -176
268 -49 22 -60 24 -102 14 -27 -6 -87 -30 -135 -53 -78 -38 -96 -42 -155 -41
-36 0 -118 13 -181 27 -160 37 -185 36 -309 -15 -149 -60 -193 -62 -345 -15
-156 50 -180 50 -285 -1 -47 -22 -107 -47 -133 -54 -83 -22 -253 -4 -367 41
-16 6 -56 57 -114 146 -110 169 -185 306 -242 445 -141 345 -215 413 -473 438
-58 6 -119 13 -136 15 -16 3 -39 1 -50 -4z m267 -80 c20 -5 48 -16 62 -25 14
-9 32 -16 39 -16 22 0 115 -114 154 -188 19 -37 38 -71 42 -77 5 -5 17 -32 27
-60 10 -27 31 -74 46 -104 15 -29 28 -61 28 -71 0 -10 15 -38 33 -62 18 -24
38 -55 44 -71 7 -15 36 -58 64 -95 68 -88 99 -155 98 -212 l0 -45 -20 43 c-10
24 -51 85 -90 134 -88 111 -164 235 -215 348 -21 47 -43 92 -49 100 -7 8 -37
58 -69 111 -82 139 -202 259 -259 259 -30 0 -36 6 -30 31 5 17 11 20 32 14 14
-3 43 -10 63 -14z m-46 -122 c64 -58 136 -148 183 -228 51 -88 131 -242 131
-254 0 -5 10 -23 23 -40 12 -18 29 -48 38 -67 9 -19 55 -84 104 -145 101 -126
127 -177 127 -246 -1 -68 -7 -79 -58 -117 -67 -49 -126 -67 -220 -66 -75 0
-85 3 -134 35 -36 23 -66 54 -94 99 -59 90 -86 136 -86 144 0 3 29 -14 64 -39
36 -25 76 -45 90 -45 32 0 106 29 127 50 42 40 63 117 47 178 -19 77 -59 64
-73 -24 -7 -50 -30 -109 -44 -119 -10 -5 -61 54 -61 70 0 5 -18 39 -40 76 -49
83 -52 109 -10 109 17 0 39 9 50 20 23 23 26 72 5 90 -12 10 -22 6 -57 -24
-71 -61 -101 -42 -112 69 -7 76 -20 95 -67 95 -14 0 -33 -7 -40 -16 -21 -25
-16 -80 9 -107 27 -29 28 -53 2 -67 -34 -18 -23 -40 33 -64 47 -21 55 -30 82
-85 16 -34 35 -67 42 -73 7 -6 13 -17 13 -25 0 -11 -9 -7 -31 11 -33 28 -49
32 -66 15 -7 -7 -17 -3 -32 17 -11 15 -21 33 -21 41 0 7 -27 54 -60 105 -33
50 -60 95 -60 100 0 4 -15 30 -33 56 -50 71 -74 129 -87 209 -10 60 -9 85 4
150 21 101 31 111 86 89 41 -16 44 -16 84 5 22 11 52 30 66 40 30 22 28 23 76
-22z m-470 -1626 c72 -35 86 -38 160 -37 54 1 92 6 114 17 18 10 35 16 36 14
2 -1 4 -38 5 -80 1 -42 6 -77 11 -77 5 0 24 -15 42 -32 72 -73 83 -79 182
-103 55 -14 110 -25 124 -25 48 0 226 43 249 61 13 11 28 19 34 19 6 0 25 11
43 25 18 14 36 25 41 25 12 1 69 55 88 84 10 15 28 29 41 32 13 3 24 14 24 23
0 9 9 27 20 41 16 20 22 22 29 11 7 -11 15 -12 38 -3 55 20 90 21 142 2 28
-10 59 -17 68 -16 10 2 40 -3 68 -11 60 -18 158 -11 238 17 90 32 226 55 239
42 9 -9 5 -12 -18 -12 -43 0 -76 -26 -73 -59 5 -39 -8 -51 -50 -51 -21 0 -52
-7 -67 -15 -16 -8 -36 -15 -44 -15 -8 0 -28 -9 -45 -20 -16 -11 -37 -20 -45
-20 -8 0 -39 -23 -68 -50 -49 -45 -53 -52 -47 -83 6 -31 3 -37 -34 -66 -36
-29 -41 -38 -41 -73 0 -28 7 -49 25 -69 28 -34 25 -49 -13 -71 -16 -10 -41
-41 -57 -70 -15 -29 -33 -60 -40 -68 -14 -17 -35 -168 -35 -251 0 -67 26 -144
63 -183 15 -16 27 -34 28 -40 1 -14 111 -104 144 -116 21 -8 25 -16 25 -48 0
-38 30 -92 51 -92 5 0 42 -15 82 -34 l72 -34 165 2 c131 2 174 6 210 20 25 10
54 19 65 20 11 1 50 17 87 34 36 18 72 32 80 32 7 0 19 9 26 20 7 11 21 20 32
20 10 0 24 9 30 19 13 25 13 87 0 111 -9 17 -12 18 -42 3 -18 -9 -42 -24 -53
-33 -30 -25 -133 -79 -194 -101 -88 -31 -256 -45 -354 -29 -90 14 -147 33
-147 49 0 16 16 13 30 -4 10 -12 38 -15 132 -15 118 0 227 17 293 45 17 7 62
25 100 40 39 14 79 35 90 45 86 77 137 144 179 234 24 51 26 210 3 264 -9 20
-18 49 -21 63 -3 14 -15 36 -26 49 -11 13 -20 27 -20 31 0 5 -27 36 -61 69
-61 61 -106 87 -169 99 l-35 7 3 55 c4 67 -22 109 -68 109 -34 0 -50 -18 -71
-79 l-16 -46 -58 0 -58 0 -21 60 c-15 42 -29 64 -48 75 -27 14 -29 14 -59 -16
-31 -32 -31 -32 -19 -82 6 -28 9 -55 6 -60 -3 -5 -29 -14 -59 -21 -30 -6 -63
-18 -73 -26 -30 -23 -42 -18 -74 33 -27 43 -28 48 -13 60 9 6 25 12 34 12 10
0 27 14 39 30 12 17 28 30 36 30 16 0 58 24 90 52 15 13 48 21 120 28 126 12
177 12 169 1 -9 -16 8 -20 55 -11 38 7 53 4 96 -16 28 -13 58 -24 66 -24 9 0
21 -7 28 -15 7 -8 17 -15 22 -15 6 0 26 -13 45 -30 34 -30 76 -39 88 -19 4 6
7 27 8 46 1 31 -6 42 -48 79 -27 24 -61 46 -77 49 -26 6 -69 24 -108 44 -37
20 -9 106 38 117 15 3 41 9 57 14 60 16 94 19 101 8 4 -6 25 -8 56 -5 l49 6
25 -55 c13 -30 24 -63 24 -74 0 -10 7 -23 15 -27 9 -5 19 -38 26 -86 11 -76
11 -79 -11 -94 -20 -14 -22 -21 -15 -82 3 -36 11 -84 16 -106 12 -47 48 -138
59 -145 6 -4 27 -34 72 -104 17 -27 78 -168 78 -182 0 -9 7 -14 18 -12 14 3
17 -5 18 -52 1 -30 8 -86 17 -125 10 -38 17 -80 17 -92 0 -66 24 -129 64 -170
22 -22 49 -57 60 -76 11 -21 24 -33 32 -30 27 10 100 -139 91 -187 -13 -65 61
-284 100 -296 10 -3 25 -9 33 -14 89 -53 167 -101 176 -108 5 -5 20 -15 33
-21 34 -18 62 -92 55 -145 -5 -32 -1 -53 15 -85 32 -62 89 -121 117 -121 15 0
24 -6 24 -15 0 -24 37 -17 58 10 12 16 30 25 47 25 14 0 35 5 46 10 13 7 19 7
19 0 0 -5 9 -10 20 -10 25 0 29 -10 32 -80 l3 -55 67 -10 c36 -5 69 -13 72
-16 3 -3 -18 -11 -47 -18 -28 -6 -83 -26 -120 -43 -64 -30 -67 -33 -45 -42 30
-13 35 -12 158 13 227 46 329 73 350 93 15 14 29 18 47 13 38 -9 19 -20 -82
-49 -167 -47 -468 -102 -789 -146 -146 -20 -265 -27 -166 -10 60 10 188 49
194 58 6 10 -100 -3 -134 -16 -14 -5 -63 -7 -110 -4 -73 4 -103 0 -196 -24
l-109 -29 -300 2 c-165 1 -338 7 -385 13 -47 7 -110 13 -140 15 -93 3 -191 16
-229 30 -20 7 -63 15 -96 19 -71 9 -155 31 -210 55 -22 10 -65 24 -95 31 -30
7 -78 24 -107 37 -30 12 -64 23 -77 23 -13 0 -27 7 -30 16 -3 8 -11 12 -16 9
-6 -4 -23 -4 -36 -1 -39 10 -16 29 58 49 35 9 97 29 138 43 41 14 98 30 126
34 28 4 60 12 70 17 22 11 99 28 199 43 38 6 83 17 100 25 16 7 50 17 75 21
50 7 129 45 155 74 22 25 16 51 -17 69 -23 13 -32 14 -60 2 -50 -20 -162 -48
-221 -56 -29 -4 -65 -13 -82 -20 -16 -6 -75 -22 -130 -34 -116 -26 -201 -50
-340 -97 -55 -19 -107 -34 -115 -34 -8 0 -32 -9 -53 -20 -20 -11 -50 -20 -66
-20 -15 0 -40 -9 -54 -20 -14 -11 -31 -20 -38 -20 -7 0 -33 -13 -58 -29 -25
-16 -57 -32 -71 -36 -14 -4 -44 -16 -67 -27 -36 -17 -48 -18 -78 -8 -39 13
-40 17 -23 55 11 24 16 26 53 21 35 -6 44 -3 65 19 13 14 30 25 38 25 7 0 33
16 56 35 24 19 46 35 51 35 4 0 57 24 119 54 61 29 134 61 161 71 28 10 64 23
80 30 17 7 53 20 80 30 28 9 59 21 70 25 45 19 90 30 116 30 15 0 47 8 71 19
24 10 77 23 118 29 203 30 225 35 267 64 23 15 44 32 47 36 9 15 -23 124 -41
138 -41 33 -112 62 -178 74 -122 22 -372 1 -500 -41 -69 -23 -179 -66 -215
-84 -14 -6 -43 -21 -65 -31 -21 -10 -52 -29 -67 -42 -15 -13 -32 -21 -37 -18
-5 4 -22 -4 -38 -17 -15 -12 -50 -38 -78 -57 -27 -19 -67 -50 -88 -70 -21 -19
-48 -40 -60 -47 -12 -6 -40 -35 -62 -64 -22 -29 -55 -69 -72 -89 -18 -21 -33
-44 -33 -52 0 -8 -11 -25 -25 -38 l-25 -23 0 46 c0 26 5 47 10 47 6 0 10 9 10
20 0 11 -4 20 -10 20 -5 0 -10 -6 -10 -13 0 -7 -9 -20 -20 -30 -15 -13 -18
-22 -12 -35 19 -37 12 -97 -18 -152 -16 -30 -34 -66 -40 -80 -6 -14 -24 -52
-39 -85 -33 -68 -55 -124 -71 -177 -6 -21 -16 -40 -21 -43 -5 -4 -9 -19 -9
-36 0 -46 -23 -35 -76 37 -27 37 -60 78 -74 93 -40 41 -90 120 -90 141 0 10
-4 21 -9 25 -27 16 -87 181 -112 305 -14 68 -6 338 10 369 7 12 26 24 42 28
17 3 33 12 36 19 2 7 35 32 71 55 75 48 122 88 122 103 0 6 12 19 28 30 31 21
107 120 121 160 6 14 14 26 18 26 14 0 86 176 99 240 3 19 11 41 16 47 14 18
21 135 9 153 -9 12 -14 12 -45 -3 -30 -14 -37 -24 -51 -74 -28 -104 -60 -194
-72 -205 -7 -6 -13 -19 -13 -29 0 -51 -150 -240 -251 -316 -41 -31 -76 -59
-79 -63 -3 -3 -32 -20 -65 -36 -125 -63 -235 -69 -321 -18 -56 33 -66 55 -48
112 21 73 105 133 224 163 30 7 66 21 79 31 13 10 28 18 33 18 6 0 21 9 35 20
14 11 33 20 42 20 9 0 30 14 48 30 18 17 37 30 44 30 6 0 31 18 55 40 24 22
49 40 55 40 14 0 139 129 139 143 0 4 12 19 27 33 23 21 25 28 16 43 -9 14 -9
28 -1 55 6 20 9 38 7 41 -6 5 -94 -27 -105 -38 -13 -13 -24 -7 -24 12 0 18
-27 37 -37 27 -3 -3 -2 -19 2 -36 5 -25 11 -30 26 -25 36 12 20 -25 -38 -85
-31 -33 -63 -60 -69 -60 -7 0 -22 -12 -35 -26 -50 -54 -66 -66 -126 -95 -34
-16 -65 -34 -68 -39 -3 -5 -38 -26 -79 -46 l-73 -37 -26 19 c-30 22 -41 44
-29 56 5 5 33 12 62 17 39 6 59 15 71 32 39 53 107 99 144 99 17 0 25 6 25 18
0 9 25 37 55 62 57 46 111 122 160 223 27 56 28 61 21 168 -9 154 -33 197
-187 340 -14 14 -44 33 -68 43 -50 23 -60 39 -54 83 3 18 2 49 -1 68 -6 32
-10 35 -41 35 -47 0 -79 -32 -71 -70 8 -41 -13 -54 -76 -47 -31 4 -57 2 -64
-4 -22 -18 -34 0 -34 48 0 37 5 50 31 74 27 25 29 31 18 51 -6 13 -18 27 -25
31 -10 6 -11 14 -4 33 16 42 12 64 -19 95 -20 19 -40 29 -60 29 -54 0 -34 16
57 45 48 16 92 33 97 38 21 19 130 -1 211 -40z m-745 23 c25 -3 59 -12 75 -21
16 -8 49 -20 74 -26 49 -12 42 -22 -24 -33 -21 -4 -58 -17 -83 -29 -43 -21
-45 -23 -40 -59 3 -21 2 -40 -3 -43 -13 -8 -130 105 -137 133 -16 62 4 94 56
87 20 -2 57 -6 82 -9z m142 -272 c10 -10 -12 -44 -27 -44 -13 0 -26 20 -26 41
0 10 43 12 53 3z m162 -99 c0 -99 0 -100 -25 -105 -14 -3 -40 -13 -59 -23
l-33 -19 -29 28 c-16 15 -29 33 -29 39 0 7 18 20 40 30 24 11 48 32 61 54 20
33 20 37 5 62 -15 26 -15 28 1 32 10 3 29 4 43 4 24 -2 24 -3 25 -102z m5376
38 c11 -31 5 -244 -11 -368 -6 -44 -15 -117 -20 -162 -6 -46 -17 -109 -26
-140 -8 -32 -20 -98 -24 -148 -15 -144 -37 -318 -45 -341 -4 -12 -2 -25 4 -28
7 -5 11 3 11 19 0 30 24 43 46 24 12 -9 14 -24 9 -64 -7 -51 -6 -53 24 -71 41
-24 39 -34 -6 -27 -55 9 -130 70 -139 112 -12 61 2 482 18 526 9 22 18 93 22
158 4 65 14 134 22 152 8 19 14 48 14 64 0 17 11 42 26 60 32 39 29 80 -7 100
-33 18 -76 8 -85 -22 -6 -21 -219 -237 -234 -237 -8 0 -30 46 -30 65 0 7 8 16
18 20 9 3 31 23 47 45 17 21 35 39 40 40 6 0 36 24 67 53 31 28 82 72 113 97
31 25 71 57 88 72 40 34 45 34 58 1z m-2778 -183 c37 -6 75 -14 85 -19 9 -6
35 -18 57 -27 80 -35 169 -135 180 -204 4 -19 11 -55 17 -80 13 -54 -6 -131
-50 -207 -30 -52 -140 -142 -195 -161 -18 -6 -59 -20 -92 -32 -51 -18 -85 -22
-220 -23 -181 -2 -231 7 -310 59 -55 37 -92 79 -131 151 -24 44 -25 55 -21
129 10 139 60 226 177 309 43 30 89 55 102 55 13 0 42 9 63 21 66 35 210 47
338 29z m-2838 -46 c14 -35 14 -36 -15 -65 -16 -16 -32 -38 -35 -49 -10 -32
-35 -25 -35 10 0 34 50 140 66 140 2 0 10 -16 19 -36z m590 15 c22 -6 42 -15
45 -19 3 -4 28 -19 57 -33 66 -34 127 -105 164 -192 34 -80 35 -94 13 -166
-47 -160 -146 -266 -322 -345 -50 -22 -145 -28 -261 -15 -125 13 -166 34 -256
126 -65 66 -95 133 -95 211 0 58 27 153 57 199 35 55 170 185 191 185 10 0 34
9 55 20 20 11 61 24 90 29 76 13 216 13 262 0z m4811 -296 c-14 -114 -29 -256
-32 -315 l-7 -108 -165 0 -165 0 29 22 c212 160 242 213 205 360 l-19 72 86
99 c48 55 88 95 90 89 2 -6 -8 -105 -22 -219z m-419 162 c19 -8 43 -15 53 -15
29 0 98 -73 128 -136 24 -53 27 -67 22 -130 -4 -55 -11 -79 -32 -110 -32 -46
-99 -114 -145 -146 -18 -13 -72 -51 -120 -86 -128 -92 -235 -141 -325 -148
l-74 -7 -32 37 c-29 33 -32 43 -32 100 0 102 87 339 150 411 10 11 25 34 34
50 8 17 51 67 94 113 l78 82 82 0 c51 0 97 -6 119 -15z m1011 -188 c2 -10 -15
-45 -37 -78 -28 -42 -41 -72 -41 -96 0 -18 -9 -51 -20 -73 -11 -22 -20 -48
-20 -59 0 -33 -22 -71 -42 -71 -25 0 -23 20 8 77 15 26 37 90 50 141 34 133
90 221 102 159z m-158 -11 c0 -2 -7 -20 -15 -39 -8 -20 -15 -50 -15 -67 0 -17
-6 -33 -14 -36 -7 -3 -16 -22 -20 -43 -3 -21 -12 -44 -20 -50 -12 -10 -13 -8
-9 11 3 13 9 28 13 33 3 6 20 52 36 102 16 51 32 93 37 93 4 0 7 -2 7 -4z
m251 -123 c8 -21 7 -42 -6 -88 -31 -115 -84 -240 -122 -288 -13 -16 -23 -33
-23 -37 0 -9 -10 -20 -99 -115 -61 -64 -195 -123 -176 -77 4 9 10 37 13 61 4
36 14 53 63 102 42 43 59 67 59 87 l1 27 24 -27 c13 -16 29 -28 34 -28 18 0
61 23 61 33 0 5 8 28 19 51 10 23 28 61 39 86 11 25 31 83 43 130 30 115 49
137 70 83z m-399 -303 c14 -25 15 -30 3 -30 -8 0 -22 -11 -31 -25 -27 -42 -43
-32 -33 21 14 74 32 85 61 34z m-392 -353 c-1 -21 -1 -21 -15 -3 -8 10 -12 23
-9 28 9 14 24 -2 24 -25z m-96 -43 c-4 -14 -15 -47 -25 -72 l-18 -47 -1 43 c0
42 25 102 42 102 5 0 5 -12 2 -26z m121 -51 c21 -85 30 -174 16 -153 -6 8 -11
27 -11 42 0 15 -4 29 -9 32 -5 3 -12 27 -16 53 -3 27 -9 58 -12 71 -3 12 -1
22 5 22 5 0 18 -30 27 -67z m-145 -161 c0 -21 -2 -22 -15 -12 -8 7 -15 27 -15
44 1 29 1 30 15 12 8 -11 15 -31 15 -44z m200 -52 c9 -16 8 -20 -5 -20 -8 0
-15 9 -15 20 0 11 2 20 5 20 2 0 9 -9 15 -20z m26 -112 c8 -34 17 -76 20 -93
l5 -30 -25 29 c-19 22 -25 43 -28 88 -5 100 6 103 28 6z m-179 -10 c-15 -27
-17 -29 -12 -8 2 14 5 34 5 45 0 15 3 16 12 7 9 -9 8 -19 -5 -44z m-19 -214
c-6 -8 0 -25 17 -49 28 -42 30 -51 14 -61 -25 -15 -43 25 -46 103 -2 72 -1 76
11 48 8 -18 10 -34 4 -41z m242 10 c0 -13 -5 -26 -11 -30 -20 -12 -32 13 -24
53 6 35 8 37 21 18 8 -10 14 -29 14 -41z m-3875 -78 c26 -19 13 -46 -24 -46
-34 0 -47 23 -25 45 19 18 25 19 49 1z m3892 -20 c-4 -9 -11 -16 -17 -16 -11
0 -14 33 -3 44 11 10 26 -11 20 -28z m-47 -15 c0 -11 -31 -24 -39 -16 -3 3 1
10 9 15 19 12 30 12 30 1z m-115 -72 c-4 -6 -14 -8 -22 -5 -9 4 -22 1 -29 -5
-11 -9 -14 -8 -14 5 0 12 9 16 36 16 22 0 33 -4 29 -11z m-801 -619 c-1 -19
-13 -62 -29 -95 -15 -33 -33 -91 -41 -130 -26 -140 -55 -250 -69 -264 -13 -13
-18 -12 -40 9 -29 27 -34 90 -12 143 21 49 38 97 52 147 7 25 20 59 29 75 9
17 23 56 32 87 15 55 28 68 64 64 10 -1 15 -12 14 -36z m-2033 10 c5 0 9 -7 9
-15 0 -8 -7 -15 -16 -15 -8 0 -30 -11 -48 -25 -18 -14 -37 -25 -43 -25 -5 0
-22 -13 -38 -30 -16 -16 -35 -30 -42 -30 -7 0 -13 -4 -13 -8 0 -4 -16 -25 -35
-45 -20 -21 -38 -50 -41 -66 -5 -25 -46 -81 -60 -81 -12 0 -64 45 -64 55 0 12
51 65 63 65 4 0 25 20 48 45 23 25 52 48 64 51 12 3 27 16 33 28 12 26 141
107 160 101 8 -3 18 -5 23 -5z m-120 -413 c-13 -13 -26 -3 -16 12 3 6 11 8 17
5 6 -4 6 -10 -1 -17z m185 -63 c71 -35 90 -56 60 -67 -8 -3 -36 5 -63 17 -26
13 -58 26 -70 30 -43 13 -55 56 -16 56 8 0 49 -16 89 -36z m1930 -71 c-10 -10
-19 5 -10 18 6 11 8 11 12 0 2 -7 1 -15 -2 -18z m221 -24 c15 -7 71 -24 123
-39 87 -24 95 -29 98 -53 6 -46 -75 -62 -109 -21 -6 8 -29 14 -51 14 -37 0
-138 42 -138 58 0 12 30 52 40 52 5 0 21 -5 37 -11z"/>
        <path d="M2280 4520 c0 -5 5 -10 10 -10 6 0 10 5 10 10 0 6 -4 10 -10 10 -5 0
-10 -4 -10 -10z"/>
        <path d="M3456 4477 c-24 -17 -13 -37 20 -37 20 0 25 4 22 22 -4 27 -18 32
-42 15z"/>
        <path d="M2235 4451 c-3 -11 -12 -22 -20 -25 -8 -3 -15 -12 -15 -21 0 -17 16
-20 25 -5 12 20 35 10 35 -16 0 -14 4 -23 10 -19 6 3 10 28 10 56 0 42 -3 49
-19 49 -11 0 -22 -9 -26 -19z"/>
        <path d="M3564 4396 c-8 -21 4 -52 15 -40 15 15 17 47 4 51 -7 3 -16 -2 -19
-11z"/>
        <path d="M1323 4359 c6 -42 30 -73 52 -66 17 6 18 40 2 52 -8 6 -16 19 -18 30
-3 11 -13 21 -23 23 -17 4 -18 -1 -13 -39z"/>
        <path d="M2580 4364 c0 -22 2 -24 14 -14 8 6 12 18 9 26 -9 23 -23 16 -23 -12z"/>
        <path d="M2570 4301 c0 -17 5 -33 10 -36 6 -4 10 8 10 29 0 20 -4 36 -10 36
-5 0 -10 -13 -10 -29z"/>
        <path d="M3070 4271 c0 -18 12 -41 21 -41 15 0 10 37 -6 44 -8 3 -15 1 -15 -3z"/>
        <path d="M3631 4254 c0 -11 3 -14 6 -6 3 7 2 16 -1 19 -3 4 -6 -2 -5 -13z"/>
        <path d="M2500 4202 c0 -13 29 -48 30 -35 0 6 3 18 6 27 4 12 0 16 -15 16 -12
0 -21 -4 -21 -8z"/>
        <path d="M2769 4193 c-12 -15 -12 -16 4 -10 10 4 23 7 28 7 5 0 9 5 9 10 0 16
-26 12 -41 -7z"/>
        <path d="M1140 4116 c0 -8 5 -18 10 -21 6 -3 10 3 10 14 0 12 -4 21 -10 21 -5
0 -10 -6 -10 -14z"/>
        <path d="M3545 4040 c3 -5 8 -10 11 -10 2 0 4 5 4 10 0 6 -5 10 -11 10 -5 0
-7 -4 -4 -10z"/>
        <path d="M1285 4011 c-8 -25 1 -41 21 -41 11 0 14 8 12 27 -4 33 -24 41 -33
14z"/>
        <path d="M2505 4021 c-6 -11 9 -23 19 -14 9 9 7 23 -3 23 -6 0 -12 -4 -16 -9z"/>
        <path d="M3756 3834 c-4 -9 -4 -19 -1 -22 2 -3 7 3 11 12 4 9 4 19 1 22 -2 3
-7 -3 -11 -12z"/>
        <path d="M1425 3570 c-3 -5 -1 -10 4 -10 6 0 11 5 11 10 0 6 -2 10 -4 10 -3 0
-8 -4 -11 -10z"/>
        <path d="M1265 3366 c-23 -19 -27 -27 -18 -37 16 -16 43 -4 43 21 0 11 5 20
10 20 6 0 10 5 10 10 0 16 -13 12 -45 -14z"/>
        <path d="M2440 3371 c0 -6 5 -13 10 -16 6 -3 10 1 10 9 0 9 -4 16 -10 16 -5 0
-10 -4 -10 -9z"/>
        <path d="M2512 3278 c3 -7 13 -15 22 -16 12 -3 17 1 14 10 -3 7 -13 15 -22 16
-12 3 -17 -1 -14 -10z"/>
        <path d="M3860 3231 c-37 -10 -48 -51 -23 -92 26 -45 59 -46 89 -2 27 40 21
81 -13 94 -13 5 -25 9 -26 8 -1 -1 -13 -4 -27 -8z"/>
        <path d="M3610 3165 c-34 -37 -29 -128 9 -140 27 -8 44 2 64 36 22 40 22 56
-5 96 -27 39 -37 41 -68 8z"/>
        <path d="M1377 3142 c-10 -10 -17 -31 -17 -45 0 -20 -5 -27 -20 -27 -23 0 -27
-18 -5 -26 23 -9 62 21 68 53 3 15 9 36 12 46 10 23 -17 23 -38 -1z"/>
        <path d="M3751 3062 c-15 -28 -14 -105 1 -120 7 -7 25 -12 41 -12 33 0 87 53
87 85 0 29 -36 56 -80 62 -31 4 -40 2 -49 -15z"/>
        <path d="M1300 3012 c0 -4 6 -16 13 -25 11 -16 14 -16 32 -3 11 8 18 16 15 19
-11 9 -60 17 -60 9z"/>
        <path d="M1280 2930 c-12 -8 -11 -10 8 -10 12 0 22 5 22 10 0 13 -11 13 -30 0z"/>
        <path d="M1190 2895 c7 -8 16 -15 21 -15 5 0 9 7 9 15 0 9 -9 15 -21 15 -18 0
-19 -2 -9 -15z"/>
        <path d="M1582 2873 c-30 -6 -41 -36 -48 -132 -5 -66 -3 -84 14 -118 13 -25
33 -45 52 -53 29 -12 32 -11 48 11 20 28 30 87 31 179 1 57 -2 69 -24 93 -26
27 -30 28 -73 20z"/>
        <path d="M1161 2847 c-13 -13 -15 -47 -3 -47 12 0 52 30 52 39 0 14 -37 20
-49 8z"/>
        <path d="M1422 2768 c-14 -14 -16 -44 -3 -52 16 -10 35 23 25 45 -7 16 -12 17
-22 7z"/>
        <path d="M3206 2750 c-15 -5 -16 -9 -7 -14 7 -5 18 -3 24 3 14 14 6 20 -17 11z"/>
        <path d="M1047 2743 c-13 -12 -7 -23 13 -23 11 0 20 7 20 15 0 15 -21 21 -33
8z"/>
        <path d="M810 2730 c0 -8 -12 -11 -35 -8 -28 3 -35 1 -35 -14 0 -23 43 -50 72
-46 19 2 23 9 23 37 0 19 -6 36 -12 39 -7 2 -13 -2 -13 -8z"/>
        <path d="M1325 2664 c-22 -23 -13 -39 20 -37 32 2 30 1 39 31 6 19 4 22 -18
22 -13 0 -32 -7 -41 -16z"/>
        <path d="M1250 2600 c0 -5 7 -10 15 -10 8 0 15 5 15 10 0 6 -7 10 -15 10 -8 0
-15 -4 -15 -10z"/>
        <path d="M1990 2525 c0 -8 7 -15 15 -15 8 0 15 7 15 15 0 8 -7 15 -15 15 -8 0
-15 -7 -15 -15z"/>
        <path d="M3933 2509 c-187 -10 -284 -54 -333 -148 l-20 -41 25 -50 c14 -27 35
-56 48 -64 32 -21 201 -33 315 -23 151 13 290 47 339 84 43 31 52 77 25 129
-28 55 -47 67 -137 91 -104 28 -128 30 -262 22z"/>
        <path d="M1823 2404 c-24 -27 -30 -54 -13 -54 6 0 16 11 22 25 6 13 19 27 30
30 23 8 24 25 1 25 -10 0 -28 -12 -40 -26z"/>
        <path d="M1689 2307 c-11 -24 2 -77 19 -77 16 0 47 55 44 78 -5 31 -49 31 -63
-1z"/>
        <path d="M2572 2268 c6 -18 28 -21 28 -4 0 9 -7 16 -16 16 -9 0 -14 -5 -12
-12z"/>
        <path d="M2388 2213 c7 -3 16 -2 19 1 4 3 -2 6 -13 5 -11 0 -14 -3 -6 -6z"/>
        <path d="M4397 2179 c-53 -12 -134 -55 -147 -78 -14 -28 -12 -87 5 -120 23
-46 68 -61 151 -51 89 9 162 35 192 67 19 21 22 34 20 76 -3 44 -7 53 -38 77
-39 31 -117 43 -183 29z"/>
        <path d="M1101 2151 c-15 -28 -14 -56 4 -71 17 -14 17 -15 32 22 10 22 9 30
-7 48 -18 21 -19 21 -29 1z"/>
        <path d="M2275 2160 c-4 -6 5 -10 19 -10 14 0 26 5 26 10 0 6 -9 10 -19 10
-11 0 -23 -4 -26 -10z"/>
        <path d="M2200 2119 c0 -5 5 -7 10 -4 6 3 10 8 10 11 0 2 -4 4 -10 4 -5 0 -10
-5 -10 -11z"/>
        <path d="M1564 2085 c-4 -14 -4 -29 0 -32 11 -11 39 25 33 41 -9 24 -26 19
-33 -9z"/>
        <path d="M2868 2088 c9 -9 15 -9 24 0 9 9 7 12 -12 12 -19 0 -21 -3 -12 -12z"/>
        <path d="M2585 1981 c-3 -5 -1 -12 5 -16 5 -3 10 1 10 9 0 18 -6 21 -15 7z"/>
        <path d="M1226 1918 c-20 -28 -21 -69 -2 -62 7 3 18 16 25 30 23 51 6 74 -23
32z"/>
        <path d="M1306 1861 c-7 -11 15 -91 25 -91 7 0 23 71 17 74 -2 1 -10 7 -20 14
-10 8 -18 9 -22 3z"/>
        <path d="M4790 1829 l-45 -19 58 6 c32 3 70 12 85 20 l27 14 -40 -1 c-22 -1
-60 -10 -85 -20z"/>
        <path d="M1425 1800 c-15 -16 -15 -22 -5 -35 19 -23 39 -18 50 11 17 45 -12
61 -45 24z"/>
        <path d="M1230 1776 c0 -9 7 -16 16 -16 17 0 14 22 -4 28 -7 2 -12 -3 -12 -12z"/>
        <path d="M1395 1718 c-3 -8 -3 -25 -1 -38 2 -14 5 -27 5 -30 3 -13 21 28 21
47 0 26 -18 40 -25 21z"/>
        <path d="M1300 1700 c0 -5 5 -10 10 -10 6 0 10 5 10 10 0 6 -4 10 -10 10 -5 0
-10 -4 -10 -10z"/>
        <path d="M500 4120 c0 -5 5 -10 10 -10 6 0 10 5 10 10 0 6 -4 10 -10 10 -5 0
-10 -4 -10 -10z"/>
        <path d="M3200 3854 c-116 -41 -180 -127 -180 -244 0 -39 8 -58 43 -111 49
-74 69 -82 197 -83 85 -1 86 -1 129 36 61 52 91 100 98 156 15 131 -76 235
-216 247 -31 2 -63 2 -71 -1z"/>
        <path d="M528 3866 c-93 -25 -179 -132 -180 -224 0 -61 33 -139 75 -180 31
-29 57 -38 144 -49 90 -11 203 59 244 151 24 55 27 142 6 182 -20 40 -100 112
-129 118 -61 12 -117 13 -160 2z"/>
        <path d="M6180 3131 c-17 -33 -11 -48 10 -22 11 13 20 27 20 32 0 16 -19 9
-30 -10z"/>
    </g>
</svg>
